<?xml version="1.0" encoding="UTF-8" standalone="no"?>
<!-- Created with Inkscape (http://www.inkscape.org/) -->

<svg
   id="svg2"
   sodipodi:version="0.32"
   inkscape:version="1.3.2 (091e20ef0f, 2023-11-25, custom)"
   width="337.62668"
   height="275.14575"
   version="1.0"
   sodipodi:docname="logo-with-cli.svg"
   xml:space="preserve"
   inkscape:export-filename="logo-with-cli.png"
   inkscape:export-xdpi="300"
   inkscape:export-ydpi="300"
   xmlns:inkscape="http://www.inkscape.org/namespaces/inkscape"
   xmlns:sodipodi="http://sodipodi.sourceforge.net/DTD/sodipodi-0.dtd"
   xmlns="http://www.w3.org/2000/svg"
   xmlns:svg="http://www.w3.org/2000/svg"
   xmlns:rdf="http://www.w3.org/1999/02/22-rdf-syntax-ns#"
   xmlns:cc="http://creativecommons.org/ns#"
   xmlns:dc="http://purl.org/dc/elements/1.1/"><metadata
     id="metadata7"><rdf:RDF><cc:Work
         rdf:about="Git Logo"><dc:format>image/svg+xml</dc:format><dc:type
           rdf:resource="http://purl.org/dc/dcmitype/StillImage" /></cc:Work></rdf:RDF></metadata><defs
     id="defs5"><inkscape:perspective
       sodipodi:type="inkscape:persp3d"
       inkscape:vp_x="0 : 101.13537 : 1"
       inkscape:vp_y="0 : 1000 : 0"
       inkscape:vp_z="97 : 101.13537 : 1"
       inkscape:persp3d-origin="48.5 : 69.802067 : 1"
       id="perspective11" /><inkscape:perspective
       id="perspective3682"
       inkscape:persp3d-origin="0.5 : 7.4687698 : 1"
       inkscape:vp_z="1 : 7.6353698 : 1"
       inkscape:vp_y="0 : 1000 : 0"
       inkscape:vp_x="0 : 7.6353698 : 1"
       sodipodi:type="inkscape:persp3d" /><inkscape:perspective
       sodipodi:type="inkscape:persp3d"
       inkscape:vp_x="0 : -140.76773 : 1"
       inkscape:vp_y="0 : 1000 : 0"
       inkscape:vp_z="97 : -140.76773 : 1"
       inkscape:persp3d-origin="48.5 : -172.10103 : 1"
       id="perspective11-7" /><inkscape:perspective
       id="perspective3682-8"
       inkscape:persp3d-origin="0.5 : -234.43433 : 1"
       inkscape:vp_z="1 : -234.26773 : 1"
       inkscape:vp_y="0 : 1000 : 0"
       inkscape:vp_x="0 : -234.26773 : 1"
       sodipodi:type="inkscape:persp3d" /></defs><sodipodi:namedview
     inkscape:window-height="1517"
     inkscape:window-width="2560"
     inkscape:pageshadow="2"
     inkscape:pageopacity="0.0"
     guidetolerance="10.0"
     gridtolerance="10.0"
     objecttolerance="10.0"
     borderopacity="1.0"
     bordercolor="#666666"
     pagecolor="#ffffff"
     id="base"
     inkscape:zoom="1.6910175"
     inkscape:cx="20.401918"
     inkscape:cy="180.36478"
     inkscape:window-x="0"
     inkscape:window-y="0"
     inkscape:current-layer="svg2"
     showguides="false"
     showgrid="false"
     inkscape:window-maximized="1"
     inkscape:showpageshadow="2"
     inkscape:pagecheckerboard="0"
     inkscape:deskcolor="#d1d1d1"
     showborder="true" /><text
     xml:space="preserve"
     style="font-size:48.1739px;line-height:1.25;font-family:Frutiger;-inkscape-font-specification:'Frutiger, Normal';font-variation-settings:normal;word-spacing:0px;vector-effect:none;fill:#666666;fill-opacity:1;stroke-width:0.735607;stroke-linecap:butt;stroke-linejoin:miter;stroke-miterlimit:4;stroke-dasharray:none;stroke-dashoffset:0;stroke-opacity:1;-inkscape-stroke:none;stop-color:#000000"
     x="18.510771"
     y="248.40559"
     id="text1-7"><tspan
       sodipodi:role="line"
       id="tspan1-0"
       x="18.510771"
       y="248.40559"
       style="font-style:normal;font-variant:normal;font-weight:bold;font-stretch:normal;font-size:48.1739px;font-family:'JetBrains Mono';-inkscape-font-specification:'JetBrains Mono, Bold';font-variant-ligatures:normal;font-variant-caps:normal;font-variant-numeric:normal;font-variant-east-asian:normal;font-variation-settings:normal;vector-effect:none;fill:#666666;fill-opacity:1;stroke-width:0.735607;stroke-linecap:butt;stroke-linejoin:miter;stroke-miterlimit:4;stroke-dasharray:none;stroke-dashoffset:0;stroke-opacity:1;-inkscape-stroke:none;stop-color:#000000;stop-opacity:1"
       dx="0 0 0"><tspan
   style="font-variation-settings:normal;letter-spacing:0px;vector-effect:none;fill:#666666;fill-opacity:1;stroke-width:0.735607;stroke-linecap:butt;stroke-linejoin:miter;stroke-miterlimit:4;stroke-dasharray:none;stroke-dashoffset:0;stroke-opacity:1;-inkscape-stroke:none;stop-color:#000000;stop-opacity:1"
   id="tspan3-4"><tspan
   style="font-variation-settings:normal;vector-effect:none;fill:#666666;fill-opacity:1;stroke-width:0.735607;stroke-linecap:butt;stroke-linejoin:miter;stroke-miterlimit:4;stroke-dasharray:none;stroke-dashoffset:0;stroke-opacity:1;-inkscape-stroke:none;stop-color:#000000;stop-opacity:1"
   id="tspan4-0">&gt;</tspan> </tspan>git annex</tspan></text><path
     sodipodi:nodetypes="ccccccccccccccccccc"
     id="path1927-4-1"
     d="m 160.79525,192.35577 c -11.60008,-1.49439 -23.53847,-12.46256 -25.20639,-25.33023 -1.59972,-10.75758 0.70817,-23.31443 9.6007,-30.41399 3.90042,-2.65848 9.20606,-5.63712 13.88482,-5.28265 0.14013,4.76254 -0.14013,10.55125 0,15.31379 -5.57282,0.62044 -10.96717,6.95467 -10.85492,12.75434 0.1366,7.54733 3.47685,14.48175 10.73818,16.7406 8.03172,2.70257 17.22586,1.93392 24.66094,-2.55921 6.14217,-4.7856 6.71028,-13.6958 3.49781,-20.4765 -1.44495,-3.73134 -4.56003,-6.47068 -8.78786,-6.45923 v 13.28344 H 166.40691 V 131.3289 h 36.10126 v 10.28372 l -9.88833,0.0915 c 9.22745,5.26008 10.1733,16.6128 9.70037,24.48894 0.3325,13.5299 -13.03437,24.56116 -26.292,26.03608 -4.79652,0.35961 -8.85473,0.37853 -15.23296,0.12667 z"
     style="fill:#666666;fill-opacity:1;stroke-width:0.735607" /><path
     sodipodi:nodetypes="ccccc"
     id="path1925-1-7"
     d="m 135.00354,125.64811 -0.0758,-15.00768 h 67.67588 l -0.008,15.07995 -67.59231,-0.0723 z"
     style="fill:#d8382d;fill-opacity:1;stroke-width:0.735607" /><path
     sodipodi:nodetypes="ccccccccccccc"
     id="path1917-90-1"
     d="M 160.79658,105.36859 V 89.307826 H 134.5599 v -13.97654 h 26.23668 v -18.02238 h 15.69293 v 18.02238 h 26.11406 v 13.97654 h -26.11406 l -0.25871,16.027244 -15.43422,0.0335 z"
     style="fill:#40bf4c;fill-opacity:1;stroke-width:0.735607" /><path
     style="fill:#40bf4c;fill-opacity:1;fill-rule:evenodd;stroke:none;stroke-width:0.735607"
     d="M 91.825744,18.068854 76.171139,39.953171 h 8.68936 c 0.01763,2.418934 0.222525,4.801478 0.574654,7.126197 l 13.81566,-2.091884 c -0.247091,-1.644053 -0.396048,-3.325842 -0.413778,-5.034313 h 8.643395 z M 100.3312,49.906858 86.975373,53.92971 c 0.679483,2.253194 1.505492,4.445378 2.482673,6.551503 l 12.666194,-5.861871 c -0.70324,-1.517249 -1.30665,-3.088285 -1.79304,-4.712484 z m 4.18377,9.011189 -11.746687,7.562963 c 5.285482,8.195887 12.907037,14.747249 21.930287,18.689025 l 5.58598,-12.804167 c -6.49673,-2.835317 -11.97061,-7.5448 -15.76958,-13.447821 z m 20.41311,15.07995 -3.77,13.470807 c 2.13297,0.596378 4.31508,1.045614 6.55155,1.356282 L 129.6406,74.98647 c -1.60694,-0.22606 -3.17878,-0.559429 -4.71252,-0.988473 z"
     id="path2836-9-1" /><path
     style="fill:#40bf4c;fill-opacity:1;fill-rule:evenodd;stroke:none;stroke-width:0.735607"
     d="m 245.29182,18.068854 -15.65468,21.884317 h 8.68936 c -0.0176,1.708471 -0.16669,3.39026 -0.41378,5.034313 l 13.81566,2.091884 c 0.35214,-2.324719 0.55679,-4.707263 0.57466,-7.126197 h 8.64339 z m -8.45948,31.838004 c -0.48638,1.624199 -1.08981,3.195235 -1.79305,4.712484 l 12.66621,5.861871 c 0.9771,-2.106125 1.80319,-4.298309 2.48267,-6.551503 z m -4.18377,9.011189 c -3.79897,5.903021 -9.27284,10.612504 -15.76958,13.447821 l 5.58598,12.804167 c 9.02325,-3.941776 16.64481,-10.493138 21.93029,-18.689025 z m -20.4131,15.07995 c -1.53374,0.429044 -3.10559,0.762413 -4.71252,0.988473 l 1.93097,13.838616 c 2.23647,-0.310668 4.41864,-0.759904 6.55153,-1.356282 z"
     id="path3649-8-1" /></svg>
